<?xml version="1.0" encoding="UTF-8"?>
<svg xmlns="http://www.w3.org/2000/svg" viewBox="48 58 120 30">
  <defs>
    <style>
      .cls-1 { fill: #211714; }
      .cls-3 { fill: #e61e2b; }
    </style>
  </defs>
  <g>
    <g>
      <polygon class="cls-1" points="127.53 78.28 127.73 82.48 140.86 81.93 140.69 77.91 127.53 78.28"/>
      <path class="cls-1" d="M133.97,68.19c1.42,0,2.08.95,2.08,2.08s-.72,2.08-2.08,2.08-2.08-.95-2.08-2.08.68-2.08,2.08-2.08M133.97,76.44c4.03,0,6.17-2.81,6.17-6.17s-1.95-6.17-6.17-6.17-6.17,2.81-6.17,6.17,2.1,6.17,6.17,6.17"/>
      <polygon class="cls-1" points="112.56 77.13 108.18 77.13 108.18 84.08 108.33 84.08 125.5 84.08 125.5 80.19 112.56 80.29 112.56 77.13"/>
      <path class="cls-1" d="M111.13,72.24v-3.76h3.44v3.38c-.99.24-2.25.34-3.44.37M114.57,75.85h4.06v-11.26h-11.58v11.3s3.93-.04,7.52-.6v.56Z"/>
      <rect class="cls-1" x="120.54" y="63.81" width="4.38" height="14.77"/>
      <rect class="cls-1" x="141.49" y="63.81" width="4.38" height="20.27"/>
      <path class="cls-1" d="M161.36,68.01v-3.1h-4.21v-1.43h-4.38v1.43h-4.21v3.1s3.56-.22,6.26-.22,6.55.22,6.55.22"/>
      <path class="cls-1" d="M162.05,80.88h-7.98v-.88h7.98v.88ZM149.68,76.83v7.55h4.38v-.29h7.98v.29h4.38v-7.55h-16.75Z"/>
      <path class="cls-1" d="M154.91,71.01c1.17,0,1.96.44,1.96,1.05s-.79,1.06-1.96,1.06-1.96-.44-1.96-1.06.79-1.05,1.95-1.05M154.96,76.01c4.1,0,6.04-1.8,6.04-3.95s-1.75-3.95-6.04-3.95-6.04,1.8-6.04,3.95,1.9,3.95,6.04,3.95"/>
      <rect class="cls-1" x="162.05" y="63.81" width="4.38" height="12.37"/>
      <polygon class="cls-1" points="85.77 75.73 93.01 75.73 93.01 77.13 87.34 77.13 87.34 81.05 98.88 80.83 98.88 84.09 103.26 84.09 103.26 77.13 97.39 77.13 97.39 75.73 104.87 75.73 104.87 71.95 85.77 71.95 85.77 75.73"/>
      <path class="cls-1" d="M98.4,71.37l4.2-.02c.95-3.77,1.01-7.02,1.01-7.02h-16.19v3.88l11.74-.13c-.15,1.15-.38,2.36-.76,3.29"/>
    </g>
    <polygon class="cls-3" points="59.02 59.49 49.89 68.63 49.89 86.92 68.19 86.92 77.32 77.78 77.32 59.49 59.02 59.49"/>
  </g>
</svg>
